Format                           : AVI
Format/Info                      : Audio Video Interleave
File size                        : 342 MiB
Duration                         : 2h 3mn
Overal bit rate                  : 388 Kbps
Writing application              : MEncoder Sherpya-SVN-r27811-4.2.5
Writing library                  : MPlayer

Video
Format                           : MPEG-4 Visual
Format profile                   : Simple@L3
Format settings, BVOP            : No
Format settings, QPel            : No
Format settings, GMC             : No warpoints
Format settings, Matrix          : Default
Codec ID                         : XVID
Codec ID/Hint                    : XviD
Duration                         : 2h 3mn
Bit rate                         : 307 Kbps
Width                            : 570 pixels
Height                           : 240 pixels
Display aspect ratio             : 2.35
Frame rate                       : 23.976 fps
Resolution                       : 8 bits
Colorimetry                      : 4:2:0
Scan type                        : Progressive
Bits/(Pixel*Frame)               : 0.094
Stream size                      : 271 MiB
Writing library                  : XviD 1.1.2 (UTC 2006-11-01)

Audio
Format                           : MPEG Audio
Format version                   : Version 1
Format profile                   : Layer 3
Codec ID                         : 55
Codec ID/Hint                    : MP3
Duration                         : 2h 3mn
Bit rate mode                    : Constant
Bit rate                         : 32.0 Kbps
Channel(s)                       : 2 channels
Sampling rate                    : 44.1 KHz
Resolution                       : 16 bits
Stream size                      : 60.7 MiB
Writing library                  : LAME3.98

DOWNLOAD SAMPLES TO SEE VIDEO QUALITY<
ITS WAY BTR THAN OTHER VIDEOS ON NET<